<svg width="160" height="37" viewBox="0 0 160 37" fill="none" xmlns="http://www.w3.org/2000/svg">
<g clip-path="url(#clip0_64789_213)">
<g clip-path="url(#clip1_64789_213)">
<rect width="160" height="37" rx="4" fill="#756157"/>
<path d="M37.9828 19.304L34.8628 13.8H37.5028L39.2308 17.032L39.6148 18.168L39.9828 17.032L41.7908 13.8H44.1748L40.9428 19.192L44.3348 25H41.7268L39.7588 21.544L39.3268 20.36L38.9108 21.544L36.9268 25H34.5428L37.9828 19.304ZM44.8971 19.4C44.8971 17.5333 45.3077 16.0987 46.1291 15.096C46.9504 14.0827 48.1237 13.576 49.6491 13.576C50.4491 13.576 51.1477 13.7147 51.7451 13.992C52.3424 14.2693 52.8384 14.664 53.2331 15.176C53.6277 15.688 53.9211 16.3013 54.1131 17.016C54.3051 17.7307 54.4011 18.5253 54.4011 19.4C54.4011 21.2667 53.9851 22.7067 53.1531 23.72C52.3317 24.7227 51.1637 25.224 49.6491 25.224C48.8384 25.224 48.1344 25.0853 47.5371 24.808C46.9397 24.5307 46.4437 24.136 46.0491 23.624C45.6651 23.112 45.3771 22.4987 45.1851 21.784C44.9931 21.0693 44.8971 20.2747 44.8971 19.4ZM47.2011 19.4C47.2011 19.9653 47.2491 20.488 47.3451 20.968C47.4411 21.4373 47.5851 21.8427 47.7771 22.184C47.9797 22.5253 48.2357 22.792 48.5451 22.984C48.8544 23.176 49.2224 23.272 49.6491 23.272C50.4277 23.272 51.0304 22.968 51.4571 22.36C51.8837 21.752 52.0971 20.7653 52.0971 19.4C52.0971 18.856 52.0491 18.3493 51.9531 17.88C51.8677 17.4107 51.7291 17 51.5371 16.648C51.3451 16.296 51.0944 16.024 50.7851 15.832C50.4757 15.6293 50.0971 15.528 49.6491 15.528C48.8704 15.528 48.2677 15.8427 47.8411 16.472C47.4144 17.0907 47.2011 18.0667 47.2011 19.4ZM57.9358 13.8V17.352C57.9358 17.992 58.0585 18.472 58.3038 18.792C58.5598 19.1013 58.9758 19.256 59.5518 19.256C59.9571 19.256 60.3358 19.2133 60.6878 19.128C61.0505 19.032 61.3385 18.8933 61.5518 18.712V13.8H63.7438V25H61.5518V20.488C61.2745 20.648 60.9011 20.7973 60.4318 20.936C59.9731 21.064 59.4238 21.128 58.7838 21.128C58.3358 21.128 57.9251 21.0747 57.5518 20.968C57.1891 20.8507 56.8691 20.6693 56.5918 20.424C56.3251 20.168 56.1171 19.848 55.9678 19.464C55.8185 19.0693 55.7438 18.5947 55.7438 18.04V13.8H57.9358ZM69.4149 18.744L69.7349 20.2H69.8309L70.0869 18.696L71.7669 13.8H74.0229L71.0469 21.544C70.8123 22.152 70.5829 22.68 70.3589 23.128C70.1456 23.576 69.9109 23.9493 69.6549 24.248C69.4096 24.536 69.1323 24.7547 68.8229 24.904C68.5136 25.0427 68.1509 25.112 67.7349 25.112C67.3829 25.112 67.0949 25.0853 66.8709 25.032C66.6576 24.9893 66.4229 24.888 66.1669 24.728L66.7269 22.952C66.9083 23.048 67.0736 23.1067 67.2229 23.128C67.3723 23.1493 67.5323 23.16 67.7029 23.16C68.2043 23.16 68.5563 22.7653 68.7589 21.976L64.5669 13.8H67.1429L69.4149 18.744ZM85.7081 24.536C85.3667 24.7813 84.9294 24.9573 84.3961 25.064C83.8734 25.1707 83.3347 25.224 82.7801 25.224C82.1081 25.224 81.4681 25.1227 80.8601 24.92C80.2627 24.7067 79.7347 24.3707 79.2761 23.912C78.8174 23.4427 78.4494 22.84 78.1721 22.104C77.9054 21.3573 77.7721 20.456 77.7721 19.4C77.7721 18.3013 77.9214 17.384 78.2201 16.648C78.5294 15.9013 78.9241 15.304 79.4041 14.856C79.8947 14.3973 80.4387 14.072 81.0361 13.88C81.6334 13.6773 82.2307 13.576 82.8281 13.576C83.4681 13.576 84.0067 13.6187 84.4441 13.704C84.8921 13.7893 85.2601 13.8907 85.5481 14.008L85.1161 15.864C84.8707 15.7467 84.5774 15.6613 84.2361 15.608C83.9054 15.5547 83.5001 15.528 83.0201 15.528C82.1347 15.528 81.4201 15.8427 80.8761 16.472C80.3427 17.1013 80.0761 18.0773 80.0761 19.4C80.0761 19.976 80.1401 20.504 80.2681 20.984C80.3961 21.4533 80.5881 21.8587 80.8441 22.2C81.1107 22.5307 81.4361 22.792 81.8201 22.984C82.2147 23.1653 82.6681 23.256 83.1801 23.256C83.6601 23.256 84.0654 23.208 84.3961 23.112C84.7267 23.016 85.0147 22.8933 85.2601 22.744L85.7081 24.536ZM89.2536 18.36H90.7416C90.8802 16.8347 91.3282 15.656 92.0856 14.824C92.8429 13.992 93.9042 13.576 95.2696 13.576C96.0802 13.576 96.7736 13.7147 97.3496 13.992C97.9256 14.2693 98.3949 14.664 98.7576 15.176C99.1309 15.688 99.4029 16.3013 99.5736 17.016C99.7549 17.7307 99.8456 18.5253 99.8456 19.4C99.8456 21.2667 99.4616 22.7067 98.6936 23.72C97.9256 24.7227 96.7842 25.224 95.2696 25.224C94.5656 25.224 93.9416 25.1067 93.3976 24.872C92.8642 24.6373 92.4109 24.3067 92.0376 23.88C91.6642 23.4533 91.3709 22.936 91.1576 22.328C90.9442 21.72 90.8056 21.048 90.7416 20.312H89.2536V25H87.0616V13.8H89.2536V18.36ZM92.9816 19.4C92.9816 19.9653 93.0189 20.488 93.0936 20.968C93.1789 21.4373 93.3069 21.8427 93.4776 22.184C93.6589 22.5253 93.8936 22.792 94.1816 22.984C94.4802 23.176 94.8429 23.272 95.2696 23.272C96.0482 23.272 96.6189 22.968 96.9816 22.36C97.3549 21.752 97.5416 20.7653 97.5416 19.4C97.5416 18.856 97.5042 18.3493 97.4296 17.88C97.3656 17.4107 97.2482 17 97.0776 16.648C96.9069 16.296 96.6722 16.024 96.3736 15.832C96.0856 15.6293 95.7176 15.528 95.2696 15.528C94.5016 15.528 93.9256 15.8427 93.5416 16.472C93.1682 17.0907 92.9816 18.0667 92.9816 19.4ZM110.948 27H109.396L109.156 25H101.956L101.716 27H100.164V23.048H101.348C101.423 22.9307 101.545 22.6693 101.716 22.264C101.887 21.8587 102.057 21.288 102.228 20.552C102.399 19.8053 102.543 18.8773 102.66 17.768C102.777 16.648 102.831 15.3253 102.82 13.8H109.524V23.048H110.948V27ZM107.332 23.048V15.752H104.852C104.788 17.6507 104.633 19.208 104.388 20.424C104.153 21.6293 103.913 22.504 103.668 23.048H107.332ZM117.707 22.52H114.267L113.419 25H111.227L115.259 13.72H116.875L120.907 25H118.603L117.707 22.52ZM114.827 20.76H117.227L116.395 18.264L116.059 16.504H115.979L115.643 18.28L114.827 20.76ZM122.514 13.8H124.658V19.064L124.242 21.672H122.93L122.514 19.064V13.8ZM122.29 23.944C122.29 23.5707 122.407 23.2773 122.642 23.064C122.877 22.84 123.186 22.728 123.57 22.728C123.975 22.728 124.295 22.84 124.53 23.064C124.765 23.2773 124.882 23.5707 124.882 23.944C124.882 24.3173 124.765 24.616 124.53 24.84C124.295 25.064 123.975 25.176 123.57 25.176C123.186 25.176 122.877 25.064 122.642 24.84C122.407 24.616 122.29 24.3173 122.29 23.944Z" fill="white"/>
</g>
</g>
<defs>
<clipPath id="clip0_64789_213">
<rect width="160" height="37" fill="white"/>
</clipPath>
<clipPath id="clip1_64789_213">
<rect width="160" height="37" fill="white"/>
</clipPath>
</defs>
</svg>
